<svg width="1440" height="1024" viewBox="0 0 1440 1024" fill="none" xmlns="http://www.w3.org/2000/svg">
  <path d="M0 0L48 42.7C96 85.3 192 171 288 224C384 277 480 299 576 277.3C672 256 768 192 864 176C960 160 1056 192 1152 213.3C1248 235 1344 245 1392 250.7L1440 256V1024H1392C1344 1024 1248 1024 1152 1024C1056 1024 960 1024 864 1024C768 1024 672 1024 576 1024C480 1024 384 1024 288 1024C192 1024 96 1024 48 1024H0V0Z" fill="#F5F5F5" fill-opacity="0.5"/>
  <path d="M0 352L48 373.3C96 395 192 437 288 448C384 459 480 437 576 422.7C672 408 768 400 864 432C960 464 1056 533 1152 544C1248 555 1344 507 1392 483L1440 459V1024H1392C1344 1024 1248 1024 1152 1024C1056 1024 960 1024 864 1024C768 1024 672 1024 576 1024C480 1024 384 1024 288 1024C192 1024 96 1024 48 1024H0V352Z" fill="#F0F0F0" fill-opacity="0.3"/>
  <path d="M0 640L48 618.7C96 597 192 555 288 560C384 565 480 619 576 618.7C672 619 768 565 864 565.3C960 565 1056 619 1152 640C1248 661 1344 651 1392 645.3L1440 640V1024H1392C1344 1024 1248 1024 1152 1024C1056 1024 960 1024 864 1024C768 1024 672 1024 576 1024C480 1024 384 1024 288 1024C192 1024 96 1024 48 1024H0V640Z" fill="#F9F9F9" fill-opacity="0.2"/>
</svg>